<?xml version="1.0" standalone="no"?>
<!DOCTYPE svg PUBLIC "-//W3C//DTD SVG 20010904//EN"
 "http://www.w3.org/TR/2001/REC-SVG-20010904/DTD/svg10.dtd">
<svg version="1.0" xmlns="http://www.w3.org/2000/svg"
 width="672.000000pt" height="672.000000pt" viewBox="0 0 672.000000 672.000000"
 preserveAspectRatio="xMidYMid meet">
<metadata>
Created by potrace 1.11, written by Peter Selinger 2001-2013
</metadata>
<g transform="translate(0.000000,672.000000) scale(0.100000,-0.100000)"
fill="#000000" stroke="none">
<path d="M4 6673 c9 -34 28 -108 32 -128 2 -11 6 -31 9 -45 13 -63 25 -140 30
-190 3 -30 8 -71 10 -90 8 -59 16 -198 21 -350 6 -193 6 -3638 0 -3760 -9
-173 -16 -305 -20 -340 -2 -19 -7 -66 -11 -105 -4 -38 -9 -79 -11 -90 -3 -11
-7 -40 -10 -65 -3 -25 -7 -53 -10 -62 -3 -10 -7 -28 -9 -40 -6 -35 -14 -70
-23 -110 l-9 -36 417 0 c404 1 418 1 415 19 -2 11 -7 24 -10 29 -3 6 -8 29
-11 53 -2 23 -6 58 -9 77 -2 19 -7 60 -9 90 -3 30 -8 80 -11 110 -9 104 -15
197 -30 545 -14 319 -26 1564 -16 1566 16 3 3288 4 3297 2 17 -6 9 -1328 -10
-1753 -8 -166 -24 -384 -30 -420 -3 -14 -8 -50 -11 -81 -3 -31 -8 -67 -10 -80
-3 -13 -7 -41 -11 -63 -3 -22 -10 -48 -15 -58 -6 -10 -7 -23 -4 -28 4 -6 157
-10 409 -10 l404 0 -13 68 c-12 61 -21 124 -30 207 -2 17 -6 66 -10 110 -3 44
-7 100 -9 125 -34 372 -48 1140 -49 2705 0 1139 5 1483 27 1710 4 33 9 96 12
139 3 44 7 82 9 86 2 3 7 33 10 65 4 33 11 70 16 83 5 12 7 22 5 22 -2 0 2 24
10 53 7 28 14 53 14 55 0 1 -183 2 -406 2 -383 0 -406 -1 -399 -17 5 -10 9
-27 10 -38 1 -11 5 -30 9 -43 4 -13 9 -38 11 -55 2 -18 6 -43 9 -57 3 -14 8
-54 11 -90 3 -36 8 -83 10 -105 3 -22 7 -76 10 -120 2 -44 5 -80 5 -80 2 0 10
-190 14 -328 2 -82 6 -151 9 -153 3 -3 1 -19 -2 -37 -4 -18 -5 -43 -1 -57 3
-14 6 -286 5 -605 l0 -580 -182 0 c-101 0 -183 -4 -183 -8 0 -5 -5 -5 -12 -1
-6 4 -277 6 -602 5 -325 -1 -598 -1 -606 -1 -8 0 -80 0 -160 0 -80 -1 -152 0
-160 0 -8 0 -80 0 -160 0 -80 0 -152 0 -160 0 -8 0 -80 0 -160 0 -80 -1 -152
-1 -160 0 -8 0 -80 0 -160 0 -80 -1 -152 -1 -160 0 -8 0 -76 0 -151 1 -76 1
-142 -2 -148 -5 -6 -4 -11 -3 -11 1 0 5 -31 7 -70 6 -39 -2 -71 0 -71 5 -3 14
-7 97 -8 152 0 30 -2 69 -3 85 0 17 -1 248 -1 515 0 572 8 800 38 1125 9 91
16 149 36 265 26 155 28 166 39 195 l10 25 -421 0 c-396 0 -420 -1 -415 -17z"/>
<path d="M1971 5423 c8 -32 28 -128 45 -208 7 -33 12 -67 28 -210 13 -104 18
-194 21 -354 2 -104 7 -176 14 -180 5 -4 143 -6 307 -6 l297 1 2 29 c2 17 6
93 10 170 6 132 10 197 21 290 2 22 6 63 8 90 6 72 14 126 43 285 2 14 10 49
18 78 l13 52 -418 0 -418 0 9 -37z"/>
<path d="M5904 5452 c12 -20 41 -188 51 -297 3 -27 7 -61 9 -75 24 -135 38
-621 39 -1365 l2 -620 -600 -5 -600 -5 4 -215 c2 -118 4 -244 5 -280 l1 -65
580 -2 c319 -1 587 -2 596 -2 15 -1 16 -62 13 -683 -3 -649 -6 -817 -18 -1093
-5 -107 -8 -153 -21 -310 -3 -44 -13 -130 -21 -185 -14 -99 -17 -119 -29 -165
l-12 -50 405 -3 c223 -1 406 -1 408 1 2 1 -1 22 -7 45 -5 23 -11 57 -13 75 -3
18 -5 32 -6 32 -1 0 -3 18 -5 40 -2 22 -6 58 -9 80 -29 240 -50 719 -61 1410
-8 475 -9 2701 -1 2865 8 167 14 274 21 365 3 39 7 95 9 125 3 30 7 73 10 95
10 62 34 197 40 225 3 14 8 35 10 48 l5 22 -405 0 c-223 0 -403 -3 -400 -8z"/>
<path d="M2079 3607 c-1 -1 -3 -585 -4 -1297 -1 -712 -5 -1360 -9 -1440 -10
-230 -23 -405 -31 -450 -3 -14 -7 -43 -10 -65 -7 -73 -31 -205 -49 -272 l-14
-53 420 0 419 0 -6 21 c-4 12 -8 31 -10 42 -3 25 -13 95 -20 147 -21 156 -36
398 -50 790 -13 369 -24 1466 -15 1481 5 7 81 10 210 8 8 0 231 1 495 3 l480
3 3 283 3 282 -600 0 c-331 0 -602 3 -602 8 -2 8 -8 222 -12 397 l-2 110 -297
2 c-164 1 -299 1 -299 0z"/>
</g>
</svg>
