<svg id="logo" xmlns="http://www.w3.org/2000/svg" viewBox="0 0 84 83.21"><defs><style>.cls-1{fill:#64ffda;}</style></defs><title>hh-logo-teal</title><path class="cls-1" d="M67.49,76.15H57.26q.83-2.73,1.12-10.49T58.55,45H17.17q0,26.32,1.29,31.13H8q1.29-4.16,1.41-14V30.92q0-11.13-.12-13.65c-.08-1.67-.21-3.24-.41-4.7A30.36,30.36,0,0,0,8,8.31H18.46q-2,6.78-1.41,29.6h41.5q.12-12.22-.17-19.6t-1.12-10H67.37a30.21,30.21,0,0,0-.88,5.52c-.2,2.29-.34,5.08-.41,8.35v20.1Q66.08,71.13,67.49,76.15Z" transform="translate(-8 -8.31)"/><path class="cls-1" d="M33.81,32.64c0,.68,0,1.84.07,3.47h7.67q.31-8.67,1.43-12.43H32.51a30.36,30.36,0,0,1,.88,4.26C33.59,29.4,33.73,31,33.81,32.64Z" transform="translate(-8 -8.31)"/><path class="cls-1" d="M56.57,60.39q.06-3.24.07-7.1H41.56c-.05-2.28-.09-4.43-.11-6.47H33.92V77.54q-.12,9.83-1.41,14H43q-1.3-4.81-1.3-31.13Z" transform="translate(-8 -8.31)"/><path class="cls-1" d="M81.77,91.52H92q-1.41-5-1.41-33.87V37.56c.08-3.28.21-6.07.41-8.36a31.11,31.11,0,0,1,.88-5.52H81.77q.83,2.63,1.12,10t.18,19.61h-15c0,2.65.07,5,.13,7.1H83.07q.11,12.89-.18,20.64T81.77,91.52Z" transform="translate(-8 -8.31)"/></svg>